<?xml version="1.0" encoding="UTF-8" standalone="no"?>
<!DOCTYPE svg PUBLIC "-//W3C//DTD SVG 1.1//EN" "http://www.w3.org/Graphics/SVG/1.1/DTD/svg11.dtd">
<svg width="100%" height="100%" viewBox="0 0 1024 512" version="1.1" xmlns="http://www.w3.org/2000/svg" xmlns:xlink="http://www.w3.org/1999/xlink" xml:space="preserve" xmlns:serif="http://www.serif.com/" style="fill-rule:evenodd;clip-rule:evenodd;stroke-linejoin:round;stroke-miterlimit:2;">
    <g transform="matrix(1.23413,0,0,1.23413,-376.321,-28.9687)">
        <g id="Default">
            <g transform="matrix(1,0,0,1.14519,1.56319e-13,-33.5265)">
                <clipPath id="_clip1">
                    <path d="M719.797,258.021L719.797,49.773L304.929,49.773L304.929,412.041L385.627,412.041L385.627,258.021L719.797,258.021Z"/>
                </clipPath>
                <g clip-path="url(#_clip1)">
                    <g transform="matrix(1.16672,0,0,1.0188,-97.3963,-88.394)">
                        <path d="M537.879,158.527C527.731,157.613 517.522,157.613 507.374,158.527L502.07,176.243C492.984,177.474 484.026,179.518 475.304,182.352L462.839,168.691C453.3,172.271 444.102,176.701 435.355,181.927L438.264,200.19C430.611,205.242 423.427,210.97 416.799,217.307L399.641,210.408C392.6,217.773 386.235,225.754 380.622,234.258L391.166,249.45C386.463,257.322 382.476,265.601 379.254,274.186L360.802,275.414C357.653,285.104 355.381,295.058 354.014,305.154L370.106,314.267C369.284,323.4 369.284,332.589 370.106,341.722L354.014,350.835C355.381,360.931 357.653,370.884 360.802,380.574L379.254,381.803C382.476,390.388 386.463,398.667 391.166,406.538L380.622,421.731C386.235,430.234 392.6,438.216 399.641,445.581L416.799,438.681C423.427,445.018 430.611,450.747 438.264,455.799L435.355,474.062C444.102,479.288 453.3,483.717 462.839,487.297L475.304,473.637C484.026,476.47 492.984,478.515 502.07,479.746L507.374,497.462C517.522,498.375 527.731,498.375 537.879,497.462L543.183,479.746C552.27,478.515 561.228,476.47 569.949,473.637L582.414,487.297C591.953,483.717 601.151,479.288 609.898,474.062L606.99,455.799C614.642,450.747 621.826,445.018 628.454,438.681L645.612,445.581C652.653,438.216 659.019,430.234 664.632,421.731L654.087,406.538C658.79,398.667 662.777,390.388 665.999,381.803L684.451,380.574C687.6,370.884 689.872,360.931 691.239,350.835L675.148,341.722C675.97,332.589 675.97,323.4 675.148,314.267L691.239,305.154C689.872,295.058 687.6,285.104 684.451,275.414L665.999,274.186C662.777,265.601 658.79,257.322 654.087,249.45L664.632,234.258C659.019,225.754 652.653,217.773 645.612,210.408L628.454,217.307C621.826,210.97 614.642,205.242 606.99,200.19L609.898,181.927C601.151,176.701 591.953,172.271 582.414,168.691L569.949,182.352C561.228,179.518 552.27,177.474 543.183,176.243L537.879,158.527ZM522.627,208.887C588.363,208.887 641.733,262.257 641.733,327.994C641.733,393.731 588.363,447.101 522.627,447.101C456.89,447.101 403.52,393.731 403.52,327.994C403.52,262.257 456.89,208.887 522.627,208.887Z" style="fill:rgb(50,23,0);"/>
                    </g>
                    <g transform="matrix(0.844811,0,0,0.737701,4.75025,27.7987)">
                        <path d="M599.9,130.016C691.216,130.016 765.353,204.152 765.353,295.468C765.353,386.784 691.216,460.92 599.9,460.92C508.585,460.92 434.448,386.784 434.448,295.468C434.448,204.152 508.585,130.016 599.9,130.016ZM599.9,141.597C684.824,141.597 753.771,210.544 753.771,295.468C753.771,380.391 684.824,449.339 599.9,449.339C514.977,449.339 446.03,380.391 446.03,295.468C446.03,210.544 514.977,141.597 599.9,141.597Z" style="fill:rgb(50,23,0);"/>
                    </g>
                    <g transform="matrix(1.00397,0,0,0.876681,-90.7292,-13.2653)">
                        <path d="M599.9,130.016C691.216,130.016 765.353,204.152 765.353,295.468C765.353,386.784 691.216,460.92 599.9,460.92C508.585,460.92 434.448,386.784 434.448,295.468C434.448,204.152 508.585,130.016 599.9,130.016ZM599.9,159.797C674.779,159.797 735.571,220.589 735.571,295.468C735.571,370.347 674.779,431.139 599.9,431.139C525.022,431.139 464.229,370.347 464.229,295.468C464.229,220.589 525.022,159.797 599.9,159.797Z" style="fill:rgb(248,116,0);"/>
                    </g>
                    <g transform="matrix(1.00397,0,0,0.876681,-90.7292,-13.2653)">
                        <path d="M599.9,130.016C691.216,130.016 765.353,204.152 765.353,295.468C765.353,386.784 691.216,460.92 599.9,460.92C508.585,460.92 434.448,386.784 434.448,295.468C434.448,204.152 508.585,130.016 599.9,130.016ZM599.9,149.87C680.258,149.87 745.498,215.11 745.498,295.468C745.498,375.826 680.258,441.066 599.9,441.066C519.543,441.066 454.302,375.826 454.302,295.468C454.302,215.11 519.543,149.87 599.9,149.87Z" style="fill:rgb(245,188,107);"/>
                    </g>
                    <g transform="matrix(1.00397,0,0,0.876681,-90.7292,-13.2653)">
                        <path d="M599.9,130.016C691.216,130.016 765.353,204.152 765.353,295.468C765.353,386.784 691.216,460.92 599.9,460.92C508.585,460.92 434.448,386.784 434.448,295.468C434.448,204.152 508.585,130.016 599.9,130.016ZM599.9,139.943C685.737,139.943 755.426,209.631 755.426,295.468C755.426,381.305 685.737,450.993 599.9,450.993C514.064,450.993 444.375,381.305 444.375,295.468C444.375,209.631 514.064,139.943 599.9,139.943Z" style="fill:rgb(132,171,178);"/>
                    </g>
                </g>
            </g>
            <g transform="matrix(1.17358,0,0,1.2486,-137.399,42.6583)">
                <g transform="matrix(144,0,0,144,1068.8,276.667)">
                </g>
                <text x="448.737px" y="276.667px" style="font-family:'Kamikaze-Regular', 'Kamikaze';font-size:144px;fill:rgb(50,23,0);">PLYoung</text>
            </g>
        </g>
    </g>
</svg>
